<svg xmlns="http://www.w3.org/2000/svg" version="1.1" xmlns:xlink="http://www.w3.org/1999/xlink" xmlns:svgjs="http://svgjs.dev/svgjs" width="1000" height="623" viewBox="0 0 1000 623"><g transform="matrix(1,0,0,1,-0.6060606060606233,0.2522267206477409)"><svg viewBox="0 0 396 247" data-background-color="#ffffff" preserveAspectRatio="xMidYMid meet" height="623" width="1000" xmlns="http://www.w3.org/2000/svg" xmlns:xlink="http://www.w3.org/1999/xlink"><g id="tight-bounds" transform="matrix(1,0,0,1,0.2400000000000091,-0.09999999999999432)"><svg viewBox="0 0 395.52 247.2" height="247.2" width="395.52"><g><svg></svg></g><g><svg viewBox="0 0 395.52 247.2" height="247.2" width="395.52"><g transform="matrix(1,0,0,1,105.83588797886394,47.215199999999996)"><svg viewBox="0 0 183.8482240422721 152.7696" height="152.7696" width="183.8482240422721"><g><svg viewBox="0 0 183.8482240422721 152.7696" height="152.7696" width="183.8482240422721"><g><svg viewBox="0 0 183.8482240422721 152.7696" height="152.7696" width="183.8482240422721"><g><svg viewBox="0 0 183.8482240422721 152.7696" height="152.7696" width="183.8482240422721"><g><svg viewBox="0 0 183.8482240422721 152.7696" height="152.7696" width="183.8482240422721"><g><svg viewBox="0 0 183.8482240422721 152.7696" height="152.7696" width="183.8482240422721"><g transform="matrix(1,0,0,1,0,0)"><svg width="183.8482240422721" viewBox="-1.2699999809265137 -35.84000015258789 44.47999954223633 36.959999084472656" height="152.7696" data-palette-color="#ee3e38"><path d="M19.82-18.16L19.82-18.16 19.82-16.94Q19.78-15.14 19.63-13.09 19.48-11.04 19.14-9.03 18.8-7.03 18.12-5.2 17.43-3.37 16.26-1.95 15.09-0.54 13.38 0.29 11.67 1.12 9.23 1.12L9.23 1.12Q6.59 1.12 4.61 0 2.64-1.12 1.32-2.95 0-4.79-0.63-7.06-1.27-9.33-1.27-11.67L-1.27-11.67Q-1.27-12.7-1.05-13.96-0.83-15.23-0.29-16.33 0.24-17.43 1.1-18.19 1.95-18.95 3.27-18.95L3.27-18.95Q4.69-18.95 5.4-18.16 6.1-17.38 6.42-16.24 6.74-15.09 6.84-13.75 6.93-12.4 7.08-11.25 7.23-10.11 7.59-9.33 7.96-8.54 8.84-8.54L8.84-8.54Q9.86-8.54 10.45-9.42 11.04-10.3 11.3-11.5 11.57-12.7 11.65-13.92 11.72-15.14 11.72-15.82L11.72-15.82Q11.72-18.55 11.25-21.17 10.79-23.78 10.11-26.46L10.11-26.46Q9.77-27.83 9.38-29.25 8.98-30.66 8.98-32.08L8.98-32.08Q8.98-33.74 9.86-34.79 10.74-35.84 12.45-35.84L12.45-35.84Q13.72-35.84 14.45-35.33 15.19-34.81 15.92-33.84L15.92-33.84Q17.04-32.32 17.8-30.37 18.55-28.42 18.99-26.32 19.43-24.22 19.63-22.09 19.82-19.97 19.82-18.16ZM43.21-8.69L43.21-8.69Q43.21-7.03 42.16-5.44 41.11-3.86 39.52-2.61 37.94-1.37 36.13-0.61 34.32 0.15 32.81 0.15L32.81 0.15Q30.22 0.15 28.2-1.15 26.17-2.44 24.8-4.44 23.43-6.45 22.73-8.86 22.02-11.28 22.02-13.57L22.02-13.57Q22.02-16.02 22.7-18.8 23.39-21.58 24.78-23.93 26.17-26.27 28.29-27.83 30.42-29.39 33.35-29.39L33.35-29.39Q35.01-29.39 36.52-28.83 38.03-28.27 39.16-27.25 40.28-26.22 40.96-24.8 41.65-23.39 41.65-21.63L41.65-21.63Q41.65-19.34 40.67-17.33 39.69-15.33 38.08-13.87 36.47-12.4 34.37-11.5 32.27-10.6 30.08-10.5L30.08-10.5Q30.27-9.08 31.22-8.45 32.18-7.81 33.49-7.81L33.49-7.81Q34.47-7.81 35.4-8.3 36.33-8.79 37.2-9.4 38.08-10.01 38.94-10.5 39.79-10.99 40.67-10.99L40.67-10.99Q41.65-10.99 42.43-10.35 43.21-9.72 43.21-8.69ZM35.3-20.65L35.3-20.65Q35.3-21.29 34.96-21.97 34.62-22.66 33.88-22.66L33.88-22.66Q32.81-22.66 32.08-22.09 31.35-21.53 30.86-20.68 30.37-19.82 30.1-18.85 29.83-17.87 29.78-17.04L29.78-17.04Q30.47-17.19 31.42-17.43 32.37-17.68 33.23-18.09 34.08-18.51 34.69-19.14 35.3-19.78 35.3-20.65Z" opacity="1" transform="matrix(1,0,0,1,0,0)" fill="#ee3e38" class="undefined-text-0" data-fill-palette-color="primary" id="text-0"></path></svg></g></svg></g></svg></g></svg></g></svg></g></svg></g></svg></g><g><path d="M215.524 0c30.402 0 58.24 10.976 79.768 29.183l-11.147 0c-19.26-14.022-42.974-22.294-68.621-22.295-25.647 0-49.361 8.272-68.621 22.295l-11.147 0c21.528-18.206 49.366-29.183 79.768-29.183zM339.124 123.6c0 33.787-13.557 64.408-35.528 86.72v-10.134c17.839-20.497 28.64-47.28 28.64-76.586 0-29.306-10.801-56.089-28.64-76.586l0-10.134c21.971 22.312 35.528 52.932 35.528 86.72zM215.524 247.2c-30.402 0-58.24-10.976-79.768-29.183l11.147 0c19.26 14.022 42.974 22.294 68.621 22.295 25.647 0 49.361-8.272 68.621-22.295l11.147 0c-21.528 18.206-49.366 29.183-79.768 29.183z" fill="#e2231e" stroke="transparent" data-fill-palette-color="tertiary"></path></g></svg></g><defs></defs></svg><rect width="395.52" height="247.2" fill="none" stroke="none" visibility="hidden"></rect></g></svg></g></svg>